<?xml version="1.0" encoding="utf-8"?>
<!-- Generator: Adobe Illustrator 20.1.0, SVG Export Plug-In . SVG Version: 6.00 Build 0)  -->
<svg version="1.1" id="Layer_1" xmlns="http://www.w3.org/2000/svg" xmlns:xlink="http://www.w3.org/1999/xlink" x="0px" y="0px"
	 viewBox="0 0 83 126.7" style="enable-background:new 0 0 83 126.7;" xml:space="preserve">
<style type="text/css">
	.st0{fill:none;stroke:#fff;stroke-width:3;stroke-miterlimit:10;}
	.st1{fill:#fff;}
</style>
<g>
	<polygon class="st0" points="42,45.8 59.4,63.1 80.7,41.8 42,3.1 3.3,41.8 24.6,63.1 	"/>
	<path class="st1" d="M27.5,83.8V67h1.3v16.8H27.5z"/>
	<path class="st1" d="M43.6,89.4c-1.3,1-2.6,1.6-4.2,1.6c-1.1,0-2-0.3-2.9-0.8c-0.9-0.5-1.6-1.2-2.1-2.1c-0.5-0.9-0.8-1.9-0.8-2.9
		c0-1.2,0.3-2.3,1-3.3c0.7-1,1.6-1.7,2.8-2.2l-0.6-1c-0.3-0.5-0.5-1-0.5-1.6c0-0.8,0.3-1.5,0.9-2.1c0.6-0.6,1.3-0.9,2.1-0.9
		s1.5,0.3,2.1,0.9c0.6,0.6,0.9,1.3,0.9,2.1c0,0.6-0.1,1.2-0.5,1.7c-0.3,0.5-0.8,0.9-1.4,1.1l-1,0.4l4.3,6.9c0.5-0.6,0.9-1.2,1.1-1.9
		l0.9,1.1c-0.3,0.7-0.7,1.4-1.2,2l1.4,2.2h-1.6L43.6,89.4z M42.9,88.2l-4.6-7.4c-1,0.4-1.8,1-2.4,1.8c-0.6,0.8-0.9,1.6-0.9,2.5
		c0,1.3,0.4,2.3,1.3,3.2s1.9,1.3,3.1,1.3S41.8,89.1,42.9,88.2z M38.8,79l1.3-0.5c0.7-0.3,1-0.8,1-1.5c0-0.4-0.1-0.8-0.4-1.2
		c-0.3-0.3-0.7-0.5-1.2-0.5c-0.4,0-0.8,0.1-1.1,0.4c-0.3,0.3-0.5,0.7-0.5,1.2c0,0.3,0.1,0.6,0.3,0.8L38.8,79z"/>
	<path class="st1" d="M53.3,89.1v15.2H52V89.1h-3.3v-1.3h7.9v1.3H53.3z"/>
</g>
<rect x="14.3" y="57.5" transform="matrix(0.7071 -0.7071 0.7071 0.7071 -47.8217 54.3514)" class="st0" width="54.8" height="54.8"/>
<rect x="56.7" y="2.3" transform="matrix(-0.7071 0.7071 -0.7071 -0.7071 117.0188 3.8146)" class="st1" width="2" height="47.6"/>
<rect x="53.1" y="5.9" transform="matrix(-0.7071 0.7071 -0.7071 -0.7071 113.4376 12.4605)" class="st1" width="2" height="47.6"/>
<rect x="49.5" y="9.5" transform="matrix(-0.7071 0.7071 -0.7071 -0.7071 109.8106 21.2168)" class="st1" width="2" height="47.6"/>
<rect x="46.3" y="12.8" transform="matrix(-0.7071 0.7071 -0.7071 -0.7071 106.5646 29.0534)" class="st1" width="2" height="47.6"/>
<rect x="42.7" y="16.4" transform="matrix(-0.7071 0.7071 -0.7071 -0.7071 102.9833 37.6993)" class="st1" width="2" height="47.6"/>
<rect x="30.4" y="23.6" transform="matrix(-0.7071 0.7071 -0.7071 -0.7071 78.458 37.832)" class="st1" width="2" height="23.1"/>
<rect x="27" y="27" transform="matrix(-0.7071 0.7071 -0.7071 -0.7071 75.0378 46.0892)" class="st1" width="2" height="23.1"/>
<rect x="23.7" y="30.3" transform="matrix(-0.7071 0.7071 -0.7071 -0.7071 71.7479 54.0317)" class="st1" width="2" height="23.1"/>
<rect x="20.2" y="33.7" transform="matrix(-0.7071 0.7071 -0.7071 -0.7071 68.3276 62.2889)" class="st1" width="2" height="23.1"/>
<rect x="16.7" y="37.3" transform="matrix(-0.7071 0.7071 -0.7071 -0.7071 64.786 70.8392)" class="st1" width="2" height="23.1"/>
</svg>
