<?xml version="1.0" encoding="utf-8"?>
<!-- Generator: Adobe Illustrator 20.1.0, SVG Export Plug-In . SVG Version: 6.00 Build 0)  -->
<svg version="1.1" id="Layer_1" xmlns="http://www.w3.org/2000/svg" xmlns:xlink="http://www.w3.org/1999/xlink" x="0px" y="0px"
	 viewBox="0 0 378.6 304.1" style="enable-background:new 0 0 378.6 304.1;" xml:space="preserve">
<style type="text/css">
	.st0{fill:#FFFFFF;stroke:#000000;stroke-miterlimit:10;}
	.st1{fill:none;stroke:#000000;stroke-width:3;stroke-miterlimit:10;}
	.st2{fill:none;stroke:#000000;stroke-miterlimit:10;}
</style>
<polygon class="st0" points="284,0 94.6,0 0,121.5 173.7,304.1 205.6,304.1 378.6,121.5 "/>
<polygon class="st0" points="271.7,11.3 102.2,11.3 17.4,120.6 99.2,211.8 285.7,211.8 357.5,120.6 "/>
<g>
	<rect x="42.2" y="26.7" class="st0" width="291.4" height="170"/>
	<path d="M161.4,102.3V56.6h3.7v45.7H161.4z"/>
	<path d="M172.8,69.8v32.5h-3.7V55.7L188,89.2V56.6h3.7v46.6L172.8,69.8z"/>
	<path d="M223.4,102.3h-4.2l-15-27.5l-4.8,7.1v20.5h-3.7V56.7h3.7v18.5l12.4-18.5h4.4l-9.8,14.6L223.4,102.3z"/>
	<path d="M256.2,98c-3.4,2.8-7.1,4.2-11.2,4.2c-2.9,0-5.5-0.7-7.9-2.1c-2.4-1.4-4.2-3.3-5.6-5.6c-1.4-2.4-2.1-5-2.1-7.9
		c0-3.2,0.9-6.2,2.8-8.9s4.4-4.7,7.6-5.9l-1.6-2.6c-0.9-1.3-1.3-2.7-1.3-4.3c0-2.2,0.8-4,2.4-5.6s3.5-2.4,5.7-2.4s4.1,0.8,5.7,2.4
		s2.4,3.5,2.4,5.7c0,1.7-0.4,3.2-1.3,4.5s-2.1,2.3-3.7,2.9l-2.8,1.1L257,92.2c1.3-1.7,2.3-3.3,3-5l2.3,3c-0.8,1.9-1.9,3.7-3.3,5.3
		l3.7,5.8h-4.4L256.2,98z M254.1,94.9l-12.5-20c-2.7,1.1-4.9,2.7-6.4,4.8s-2.3,4.4-2.3,6.8c0,3.5,1.2,6.3,3.6,8.6s5.2,3.4,8.4,3.4
		S251.2,97.3,254.1,94.9z M243.2,70.2l3.4-1.3c1.8-0.8,2.7-2.2,2.7-4c0-1.2-0.4-2.2-1.2-3.1c-0.8-0.9-1.9-1.3-3.2-1.3
		c-1.1,0-2.1,0.4-3,1.2c-0.9,0.8-1.3,1.9-1.3,3.2c0,0.9,0.2,1.6,0.7,2.2L243.2,70.2z"/>
	<path d="M174.2,127.9v42h-3.7v-42h-9.1v-3.7h21.8v3.7H174.2z"/>
	<path d="M194.5,166.2h17.3v3.7h-21v-27.5h-5.6l2.2-3.7h3.4v-14.5h21v3.7h-17.3v10.8h11v3.7h-11V166.2z"/>
	<path d="M224.1,166.2h17.3v3.7h-21v-27.5h-5.6l2.2-3.7h3.4v-14.5h21v3.7h-17.3v10.8h11v3.7h-11V166.2z"/>
	<path d="M249.1,130.6l-2.1-3.5h-1.6v-3.8h3.8L249.1,130.6L249.1,130.6z"/>
	<path d="M255.7,159.3c0.5,2.3,1.7,4.1,3.5,5.5s3.8,2.1,6,2.1c2.8,0,5.1-1,7-2.9s2.8-4.2,2.8-6.9c0-2.4-0.7-4.4-2-6.1
		c-1.3-1.7-3.1-2.8-5.2-3.3l-5.2-1.3c-2.6-0.7-4.6-2-6.2-4.1s-2.4-4.4-2.4-7.1c0-3.2,1.1-6,3.4-8.2c2.3-2.3,5-3.4,8.2-3.4
		c2.1,0,4,0.5,5.8,1.6s3.2,2.5,4.3,4.2l-3.2,1.8c-1.5-2.6-3.8-3.9-6.9-3.9c-2.2,0-4.1,0.8-5.6,2.4c-1.5,1.6-2.3,3.4-2.3,5.5
		c0,1.8,0.6,3.5,1.7,4.9s2.5,2.4,4.2,2.8l5.2,1.3c2.9,0.8,5.3,2.4,7.2,4.8c1.9,2.4,2.8,5.2,2.8,8.2c0,3.8-1.3,6.9-4,9.5
		c-2.6,2.6-5.8,3.9-9.5,3.9c-3.1,0-5.8-1-8.3-2.9c-2.4-1.9-4-4.4-4.8-7.4L255.7,159.3z"/>
	<rect x="144.3" y="108.9" width="161.5" height="4.2"/>
	<polygon class="st1" points="118,93.7 135.4,111 156.7,89.7 118,51 79.3,89.7 100.6,111 	"/>
	
		<rect x="90.6" y="105.4" transform="matrix(0.7071 -0.7071 0.7071 0.7071 -59.3167 122.3509)" class="st1" width="54.8" height="54.8"/>
	<rect x="54.8" y="38" class="st2" width="266.7" height="147.2"/>
</g>
<rect x="132.5" y="49.1" transform="matrix(0.7071 -0.7071 0.7071 0.7071 -13.3215 116.0828)" width="2" height="50"/>
<rect x="129.7" y="51.8" transform="matrix(0.7071 -0.7071 0.7071 0.7071 -16.0871 114.945)" width="2" height="50.1"/>
<rect x="127" y="54.7" transform="matrix(0.7071 -0.7071 0.7071 0.7071 -18.8411 113.8318)" width="2" height="50"/>
<rect x="124.3" y="57.3" transform="matrix(0.7071 -0.7071 0.7071 0.7071 -21.5361 112.7234)" width="2" height="50.1"/>
<rect x="122.2" y="60.3" transform="matrix(0.7071 -0.7071 0.7071 0.7071 -24.2358 112.1123)" width="2" height="50"/>
<rect x="119.4" y="63" transform="matrix(0.7071 -0.7071 0.7071 0.7071 -26.9721 110.9039)" width="2" height="50.1"/>
<rect x="107.8" y="69.3" transform="matrix(0.7071 -0.7071 0.7071 0.7071 -25.7513 100.7884)" width="2" height="24.3"/>
<rect x="105.1" y="72" transform="matrix(0.7071 -0.7071 0.7071 0.7071 -28.4563 99.68)" width="2" height="24.4"/>
<rect x="102.6" y="74.5" transform="matrix(0.7071 -0.7071 0.7071 0.7071 -30.9465 98.671)" width="2" height="24.3"/>
<rect x="99.9" y="77.2" transform="matrix(0.7071 -0.7071 0.7071 0.7071 -33.6515 97.5626)" width="2" height="24.4"/>
<rect x="97.3" y="79.8" transform="matrix(0.7071 -0.7071 0.7071 0.7071 -36.2416 96.4574)" width="2" height="24.3"/>
<rect x="94.6" y="82.5" transform="matrix(0.7071 -0.7071 0.7071 0.7071 -38.9467 95.349)" width="2" height="24.4"/>
<rect x="94.6" y="82.5" transform="matrix(0.7071 -0.7071 0.7071 0.7071 -38.9467 95.349)" width="2" height="24.4"/>
<rect x="94.6" y="82.5" transform="matrix(0.7071 -0.7071 0.7071 0.7071 -38.9467 95.349)" width="2" height="24.4"/>
<rect x="91.8" y="85.2" transform="matrix(0.7071 -0.7071 0.7071 0.7071 -41.7173 94.1496)" width="2" height="24.4"/>
<rect x="100.7" y="200.2" width="172.8" height="1.1"/>
<rect x="108.6" y="205.8" width="158" height="1.1"/>
<rect x="101" y="21.2" width="172.8" height="1.1"/>
<rect x="108" y="15.6" width="158" height="1.1"/>
<rect x="338.7" y="101.4" class="st2" width="22.4" height="40.3"/>
<rect x="17.4" y="101.4" class="st2" width="22.4" height="40.3"/>
<g>
	<path d="M124.6,227.7c0.2,0.8,0.6,1.4,1.1,1.8c0.6,0.5,1.3,0.7,2,0.7c0.9,0,1.7-0.3,2.3-0.9s0.9-1.4,0.9-2.3c0-0.8-0.2-1.4-0.7-2
		c-0.4-0.6-1-0.9-1.7-1.1l-1.7-0.4c-0.8-0.2-1.5-0.7-2-1.4c-0.5-0.7-0.8-1.5-0.8-2.3c0-1.1,0.4-2,1.1-2.7c0.7-0.7,1.6-1.1,2.7-1.1
		c0.7,0,1.3,0.2,1.9,0.5s1.1,0.8,1.4,1.4l-1.1,0.6c-0.5-0.9-1.2-1.3-2.3-1.3c-0.7,0-1.3,0.3-1.8,0.8s-0.8,1.1-0.8,1.8
		c0,0.6,0.2,1.1,0.6,1.6c0.4,0.5,0.8,0.8,1.4,0.9l1.7,0.4c1,0.3,1.7,0.8,2.4,1.6c0.6,0.8,0.9,1.7,0.9,2.7c0,1.2-0.4,2.3-1.3,3.1
		c-0.9,0.9-1.9,1.3-3.1,1.3c-1,0-1.9-0.3-2.7-1c-0.8-0.6-1.3-1.4-1.6-2.4L124.6,227.7z"/>
	<path d="M141.3,223.6l-1,0.8c-0.7-0.8-1.6-1.3-2.7-1.3c-1,0-1.8,0.3-2.5,1c-0.7,0.7-1,1.5-1,2.5s0.3,1.8,1,2.5c0.7,0.7,1.5,1,2.5,1
		c1.1,0,2-0.4,2.7-1.2l1,0.8c-0.5,0.5-1,0.9-1.6,1.2c-0.6,0.3-1.3,0.4-2,0.4c-1.3,0-2.4-0.5-3.4-1.4c-0.9-0.9-1.4-2.1-1.4-3.4
		s0.5-2.5,1.4-3.4s2.1-1.4,3.4-1.4c0.8,0,1.4,0.1,2.1,0.4S140.9,223.1,141.3,223.6z"/>
	<path d="M147,222.1l-0.6,1.1c-0.2-0.1-0.4-0.1-0.6-0.1c-0.7,0-1.2,0.2-1.7,0.7c-0.4,0.5-0.7,1-0.7,1.6v5.7h-1.2v-9l1,0.8
		c0.7-0.7,1.5-1.1,2.5-1.1C146.3,221.9,146.7,222,147,222.1z"/>
	<path d="M155.6,228.4l1.1,0.6c-0.4,0.8-1,1.4-1.7,1.8c-0.8,0.5-1.6,0.7-2.5,0.7c-1.3,0-2.4-0.5-3.4-1.4c-0.9-0.9-1.4-2.1-1.4-3.4
		s0.5-2.5,1.4-3.4s2.1-1.4,3.4-1.4c0.8,0,1.6,0.2,2.3,0.6c0.7,0.4,1.3,0.9,1.7,1.6l-6.2,5.4c0.6,0.5,1.3,0.7,2.1,0.7
		c0.7,0,1.3-0.2,1.8-0.5S155.3,228.9,155.6,228.4z M149.5,228.7l5.3-4.7c-0.7-0.6-1.4-0.9-2.3-0.9c-1,0-1.8,0.3-2.5,1
		c-0.7,0.7-1,1.5-1,2.5C148.9,227.4,149.1,228.1,149.5,228.7z"/>
	<path d="M165.3,228.4l1.1,0.6c-0.4,0.8-1,1.4-1.7,1.8c-0.8,0.5-1.6,0.7-2.5,0.7c-1.3,0-2.4-0.5-3.4-1.4c-0.9-0.9-1.4-2.1-1.4-3.4
		s0.5-2.5,1.4-3.4s2.1-1.4,3.4-1.4c0.8,0,1.6,0.2,2.3,0.6c0.7,0.4,1.3,0.9,1.7,1.6l-6.2,5.4c0.6,0.5,1.3,0.7,2.1,0.7
		c0.7,0,1.3-0.2,1.8-0.5S165,228.9,165.3,228.4z M159.2,228.7l5.3-4.7c-0.7-0.6-1.4-0.9-2.3-0.9c-1,0-1.8,0.3-2.5,1
		c-0.7,0.7-1,1.5-1,2.5C158.6,227.4,158.8,228.1,159.2,228.7z"/>
	<path d="M167.4,231.2v-9l1,0.8c0.7-0.7,1.5-1.1,2.6-1.1c1,0,1.9,0.3,2.6,1s1,1.5,1,2.6v5.7h-1.2v-5.7c0-0.7-0.2-1.3-0.7-1.7
		c-0.5-0.4-1-0.7-1.7-0.7c-0.7,0-1.2,0.2-1.7,0.7s-0.7,1-0.7,1.7v5.7H167.4z"/>
	<path d="M180.7,231.5c-1.4,0-2.6-0.5-3.6-1.6v7.3h-1.2v-15.1l1.3,1.2c1-1,2.1-1.5,3.4-1.5s2.5,0.5,3.4,1.4s1.4,2.1,1.4,3.4
		s-0.5,2.4-1.4,3.4S182,231.5,180.7,231.5z M180.7,230.3c1,0,1.8-0.3,2.5-1c0.7-0.7,1-1.5,1-2.5s-0.3-1.8-1-2.5
		c-0.7-0.7-1.5-1-2.5-1s-1.8,0.3-2.5,1c-0.7,0.7-1,1.5-1,2.5s0.3,1.8,1,2.5C178.8,229.9,179.7,230.3,180.7,230.3z"/>
	<path d="M191.2,222.1l-0.6,1.1c-0.2-0.1-0.4-0.1-0.6-0.1c-0.7,0-1.2,0.2-1.7,0.7s-0.7,1-0.7,1.6v5.7h-1.2v-9l1,0.8
		c0.7-0.7,1.5-1.1,2.5-1.1C190.4,221.9,190.8,222,191.2,222.1z"/>
	<path d="M192.2,218.6h1.2v1.3h-1.2V218.6z M192.2,222.2h1.2v9h-1.2V222.2z"/>
	<path d="M194.7,231.2v-9l1,0.8c0.7-0.7,1.5-1.1,2.6-1.1c1,0,1.9,0.3,2.6,1s1,1.5,1,2.6v5.7h-1.2v-5.7c0-0.7-0.2-1.3-0.7-1.7
		c-0.5-0.4-1-0.7-1.7-0.7s-1.2,0.2-1.7,0.7s-0.7,1-0.7,1.7v5.7H194.7z"/>
	<path d="M204.5,223.4h-1.6v-1.2h1.6v-2.5l1.2-0.6v3.1h1.6v1.2h-1.6v7.8h-1.2V223.4z"/>
	<path d="M221.2,216.2c1,0,1.9,0.2,2.7,0.7c0.8,0.5,1.5,1.1,2,2c0.5,0.8,0.7,1.7,0.7,2.7c0,1.5-0.5,2.8-1.6,3.8
		c-1,1-2.3,1.6-3.8,1.6h-1.8v4.3h-1.2v-13.8h-1.8l0.7-1.2h4.1V216.2z M219.5,225.7h1.8c1.2,0,2.2-0.4,3-1.2c0.8-0.8,1.1-1.8,1.1-2.9
		c0-0.8-0.2-1.6-0.6-2.2s-0.9-1.1-1.5-1.5c-0.6-0.3-1.3-0.5-2-0.5h-1.8V225.7z"/>
	<path d="M235.5,230c-1,1-2.1,1.5-3.4,1.5s-2.4-0.5-3.4-1.4c-0.9-0.9-1.4-2.1-1.4-3.4s0.5-2.5,1.4-3.4s2.1-1.4,3.4-1.4
		s2.5,0.5,3.4,1.5l1.3-1.2v9L235.5,230z M232.1,223.1c-1,0-1.8,0.3-2.5,1s-1,1.5-1,2.5s0.3,1.8,1,2.5s1.5,1,2.5,1s1.8-0.3,2.5-1
		s1-1.5,1-2.5s-0.3-1.8-1-2.5C233.9,223.5,233,223.1,232.1,223.1z"/>
	<path d="M242.9,222.1l-0.6,1.1c-0.2-0.1-0.4-0.1-0.6-0.1c-0.7,0-1.2,0.2-1.7,0.7s-0.7,1-0.7,1.6v5.7h-1.2v-9l1,0.8
		c0.7-0.7,1.5-1.1,2.5-1.1C242.1,221.9,242.5,222,242.9,222.1z"/>
	<path d="M243.9,231.2v-15h1.2v15H243.9z"/>
	<path d="M250.9,221.9c1.3,0,2.5,0.5,3.4,1.4s1.4,2.1,1.4,3.4s-0.5,2.4-1.4,3.4s-2.1,1.4-3.4,1.4s-2.4-0.5-3.4-1.4s-1.4-2.1-1.4-3.4
		s0.5-2.5,1.4-3.4S249.6,221.9,250.9,221.9z M250.9,223.1c-1,0-1.8,0.3-2.5,1s-1,1.5-1,2.5s0.3,1.8,1,2.5s1.5,1,2.5,1s1.8-0.3,2.5-1
		s1-1.5,1-2.5s-0.3-1.8-1-2.5S251.9,223.1,250.9,223.1z"/>
	<path d="M261.4,222.1l-0.6,1.1c-0.2-0.1-0.4-0.1-0.6-0.1c-0.7,0-1.2,0.2-1.7,0.7s-0.7,1-0.7,1.6v5.7h-1.2v-9l1,0.8
		c0.7-0.7,1.5-1.1,2.5-1.1C260.6,221.9,261,222,261.4,222.1z"/>
</g>
<polygon class="st0" points="173.9,303.4 118,248.8 259.4,248.8 204.6,303.4 "/>
<polygon class="st0" points="173.9,303.4 129.5,246.9 247.9,246.9 204.6,303.4 "/>
<polygon class="st0" points="173.9,302.7 141,245.7 236.4,245.7 204.6,302.7 "/>
<polygon class="st0" points="177.8,303.4 151.8,244.2 225.6,244.2 200.8,303.4 "/>
<polygon class="st0" points="188.7,302.7 158.8,239.5 218.6,239.5 "/>
</svg>
