<?xml version="1.0" encoding="utf-8"?>
<!-- Generator: Adobe Illustrator 23.1.1, SVG Export Plug-In . SVG Version: 6.00 Build 0)  -->
<svg version="1.1" id="Layer_1" xmlns="http://www.w3.org/2000/svg" xmlns:xlink="http://www.w3.org/1999/xlink" x="0px" y="0px"
	 viewBox="0 0 484.6 389.2" style="enable-background:new 0 0 484.6 389.2;" xml:space="preserve">
<style type="text/css">
	.st0{fill:#FFFFFF;stroke:#000000;stroke-width:1.2797;stroke-miterlimit:10;}
	.st1{fill:none;stroke:#000000;stroke-width:3.8392;stroke-miterlimit:10;}
	.st2{fill:none;stroke:#000000;stroke-width:3.8392;stroke-miterlimit:9.9999;}
	.st3{fill:none;stroke:#000000;stroke-width:1.2797;stroke-miterlimit:10;}
	.st4{fill:none;}
	.st5{font-family:'BelleroseLight';}
	.st6{font-size:26.8741px;}
</style>
<g>
	<polygon class="st0" points="363.4,0 121.2,0 0,155.6 222.4,389.2 263.2,389.2 484.6,155.6 	"/>
	<polygon class="st0" points="347.8,14.5 130.8,14.5 22.3,154.3 126.9,271.1 365.7,271.1 457.5,154.3 	"/>
	<g>
		<rect x="54" y="34.2" class="st0" width="372.9" height="217.5"/>
		<path d="M206.6,131V72.5h4.7V131H206.6z"/>
		<path d="M221.2,89.4V131h-4.7V71.4l24.2,42.8V72.5h4.7v59.6L221.2,89.4z"/>
		<path d="M285.9,131h-5.3l-19.2-35.3l-6.1,9v26.2h-4.7V72.4h4.7V96l15.9-23.6h5.7l-12.6,18.7L285.9,131z"/>
		<path d="M327.9,125.4c-4.3,3.6-9.1,5.3-14.4,5.3c-3.7,0-7.1-0.9-10.1-2.7c-3-1.8-5.4-4.2-7.2-7.2c-1.8-3-2.7-6.4-2.7-10.1
			c0-4.1,1.2-7.9,3.6-11.3c2.4-3.4,5.6-6,9.8-7.6l-2.1-3.3c-1.1-1.7-1.6-3.5-1.6-5.5c0-2.8,1-5.2,3-7.2c2-2.1,4.4-3.1,7.3-3.1
			s5.3,1,7.3,3s3,4.4,3,7.3c0,2.2-0.6,4.1-1.7,5.8s-2.7,2.9-4.7,3.7l-3.5,1.5l15,23.9c1.7-2.1,3-4.3,3.9-6.4l2.9,3.9
			c-1,2.5-2.4,4.7-4.2,6.8l4.7,7.5h-5.6L327.9,125.4z M325.3,121.5l-16-25.6c-3.5,1.4-6.2,3.4-8.2,6.1c-1.9,2.7-2.9,5.6-2.9,8.7
			c0,4.4,1.5,8.1,4.6,11c3,2.9,6.6,4.3,10.7,4.3S321.5,124.5,325.3,121.5z M311.3,89.9l4.3-1.7c2.3-1,3.4-2.8,3.4-5.2
			c0-1.5-0.5-2.8-1.5-3.9c-1-1.1-2.4-1.7-4-1.7c-1.4,0-2.7,0.5-3.9,1.5c-1.1,1-1.7,2.4-1.7,4c0,1.1,0.3,2,0.9,2.8L311.3,89.9z"/>
		<path d="M222.9,163.8v53.7h-4.7v-53.7h-11.6v-4.7h27.9v4.7H222.9z"/>
		<path d="M249,212.8h22.1v4.7h-26.8v-35.2h-7.1l2.8-4.7h4.3V159h26.8v4.7H249v13.9h14v4.7h-14V212.8z"/>
		<path d="M286.8,212.8h22.1v4.7h-26.8v-35.2H275l2.8-4.7h4.3V159h26.8v4.7h-22.1v13.9h14v4.7h-14L286.8,212.8L286.8,212.8z"/>
		<path d="M318.9,167.1l-2.8-4.5H314v-4.8h4.8v9.3H318.9z"/>
		<path d="M327.2,203.9c0.7,2.9,2.2,5.3,4.5,7.1c2.3,1.8,4.9,2.7,7.7,2.7c3.6,0,6.5-1.2,8.9-3.7c2.4-2.4,3.6-5.4,3.6-8.8
			c0-3-0.9-5.6-2.6-7.8c-1.7-2.1-3.9-3.6-6.6-4.3l-6.7-1.7c-3.3-0.9-5.9-2.6-8-5.3c-2-2.7-3.1-5.7-3.1-9.1c0-4.1,1.4-7.6,4.3-10.5
			s6.4-4.3,10.5-4.3c2.6,0,5.1,0.7,7.4,2s4.1,3.1,5.5,5.4l-4.1,2.3c-1.9-3.3-4.8-5-8.8-5c-2.8,0-5.2,1-7.2,3.1c-2,2-3,4.4-3,7.1
			c0,2.3,0.7,4.4,2.1,6.3c1.4,1.8,3.2,3,5.3,3.5l6.7,1.7c3.7,1,6.8,3,9.2,6.1c2.4,3.1,3.6,6.6,3.6,10.5c0,4.8-1.7,8.9-5.1,12.2
			c-3.4,3.3-7.4,5-12.1,5c-4,0-7.5-1.2-10.6-3.7s-5.1-5.6-6.1-9.5L327.2,203.9z"/>
		<rect x="184.7" y="139.5" width="206.7" height="5.4"/>
		<polygon class="st1" points="151,119.9 173.3,142.2 200.6,114.8 151,65.3 101.5,114.8 128.8,142.2 		"/>
		
			<rect x="116" y="134.9" transform="matrix(0.7071 -0.7071 0.7071 0.7071 -75.9164 156.5821)" class="st2" width="70.1" height="70.1"/>
		<rect x="70.1" y="48.7" class="st3" width="341.3" height="188.4"/>
	</g>
	<rect x="169.6" y="62.9" transform="matrix(0.7071 -0.7071 0.7071 0.7071 -17.0656 148.614)" width="2.6" height="64"/>
	<rect x="166" y="66.3" transform="matrix(0.7071 -0.7071 0.7071 0.7071 -20.5257 147.1335)" width="2.6" height="64.1"/>
	<rect x="162.6" y="70" transform="matrix(0.7071 -0.7071 0.7071 0.7071 -24.1201 145.7883)" width="2.6" height="64"/>
	<rect x="159.1" y="73.4" transform="matrix(0.7071 -0.7071 0.7071 0.7071 -27.5802 144.3078)" width="2.6" height="64.1"/>
	<rect x="156.4" y="77.2" transform="matrix(0.7071 -0.7071 0.7071 0.7071 -31.0366 143.5042)" width="2.6" height="64"/>
	<rect x="152.9" y="80.6" transform="matrix(0.7071 -0.7071 0.7071 0.7071 -34.4966 142.0237)" width="2.6" height="64.1"/>
	<rect x="137.9" y="88.7" transform="matrix(0.7071 -0.7071 0.7071 0.7071 -32.9495 129.0047)" width="2.6" height="31.1"/>
	<rect x="134.5" y="92.2" transform="matrix(0.7071 -0.7071 0.7071 0.7071 -36.4518 127.5949)" width="2.6" height="31.2"/>
	<rect x="131.4" y="95.3" transform="matrix(0.7071 -0.7071 0.7071 0.7071 -39.5433 126.2724)" width="2.6" height="31.1"/>
	<rect x="127.9" y="98.8" transform="matrix(0.7071 -0.7071 0.7071 0.7071 -43.0456 124.8626)" width="2.6" height="31.2"/>
	<rect x="124.5" y="102.1" transform="matrix(0.7071 -0.7071 0.7071 0.7071 -46.3371 123.4468)" width="2.6" height="31.1"/>
	<rect x="121.1" y="105.6" transform="matrix(0.7071 -0.7071 0.7071 0.7071 -49.8394 122.037)" width="2.6" height="31.2"/>
	<rect x="121.1" y="105.6" transform="matrix(0.7071 -0.7071 0.7071 0.7071 -49.8394 122.037)" width="2.6" height="31.2"/>
	<rect x="121.1" y="105.6" transform="matrix(0.7071 -0.7071 0.7071 0.7071 -49.8394 122.037)" width="2.6" height="31.2"/>
	<rect x="117.5" y="109.1" transform="matrix(0.7071 -0.7071 0.7071 0.7071 -53.4101 120.5288)" width="2.6" height="31.2"/>
	<rect x="128.9" y="256.3" width="221.2" height="1.5"/>
	<rect x="139" y="263.5" width="202.2" height="1.5"/>
	<rect x="129.3" y="27.1" width="221.2" height="1.5"/>
	<rect x="138.1" y="20" width="202.2" height="1.5"/>
	<rect x="433.4" y="129.8" class="st3" width="28.7" height="51.6"/>
	<rect x="22.3" y="129.8" class="st3" width="28.7" height="51.6"/>
	<rect x="157.6" y="276.7" class="st4" width="182.1" height="48.6"/>
	<text transform="matrix(1 0 0 1 157.6242 295.9311)" class="st5 st6">Screenprint Parlor</text>
	<polygon class="st0" points="222.6,388.4 151,318.4 332,318.4 261.9,388.4 	"/>
	<polygon class="st0" points="222.6,388.4 165.7,316 317.3,316 261.9,388.4 	"/>
	<polygon class="st0" points="222.6,387.4 180.4,314.5 302.6,314.5 261.9,387.4 	"/>
	<polygon class="st0" points="227.5,388.4 194.3,312.5 288.8,312.5 257,388.4 	"/>
	<polygon class="st0" points="241.5,387.4 203.2,306.5 279.8,306.5 	"/>
</g>
</svg>
